<mxfile host="app.diagrams.net" modified="2024-04-11T23:21:37.367Z" agent="Mozilla/5.0 (X11; Linux x86_64) AppleWebKit/537.36 (KHTML, like Gecko) Chrome/123.0.0.0 Safari/537.36" etag="-vzNaSUU-kZ3HRAUrkGc" version="24.2.3" type="device">
  <diagram name="Page-1" id="zYOnW7e1dCvpZjXTlBF6">
    <mxGraphModel dx="2261" dy="786" grid="1" gridSize="10" guides="1" tooltips="1" connect="1" arrows="1" fold="1" page="1" pageScale="1" pageWidth="827" pageHeight="1169" math="0" shadow="0">
      <root>
        <mxCell id="0" />
        <mxCell id="1" parent="0" />
        <mxCell id="cq9Dduk9PTRWg6nazAdE-26" value="" style="rounded=0;whiteSpace=wrap;html=1;container=0;fillColor=none;" vertex="1" parent="1">
          <mxGeometry x="130" y="250" width="680" height="640" as="geometry" />
        </mxCell>
        <mxCell id="cq9Dduk9PTRWg6nazAdE-27" value="" style="rounded=0;whiteSpace=wrap;html=1;container=0;fillColor=none;" vertex="1" parent="1">
          <mxGeometry x="380" y="260" width="420" height="500" as="geometry" />
        </mxCell>
        <mxCell id="cq9Dduk9PTRWg6nazAdE-13" style="edgeStyle=orthogonalEdgeStyle;rounded=0;orthogonalLoop=1;jettySize=auto;html=1;" edge="1" parent="1" source="W9lrs2fbmWmmJSOxmweB-1" target="W9lrs2fbmWmmJSOxmweB-4">
          <mxGeometry relative="1" as="geometry" />
        </mxCell>
        <mxCell id="cq9Dduk9PTRWg6nazAdE-15" style="edgeStyle=orthogonalEdgeStyle;rounded=0;orthogonalLoop=1;jettySize=auto;html=1;" edge="1" parent="1">
          <mxGeometry relative="1" as="geometry">
            <mxPoint x="451" y="512.5" as="sourcePoint" />
            <mxPoint x="451" y="800" as="targetPoint" />
          </mxGeometry>
        </mxCell>
        <mxCell id="cq9Dduk9PTRWg6nazAdE-16" style="edgeStyle=orthogonalEdgeStyle;rounded=0;orthogonalLoop=1;jettySize=auto;html=1;" edge="1" parent="1" source="W9lrs2fbmWmmJSOxmweB-1" target="W9lrs2fbmWmmJSOxmweB-11">
          <mxGeometry relative="1" as="geometry">
            <Array as="points">
              <mxPoint x="540" y="478" />
              <mxPoint x="540" y="680" />
            </Array>
          </mxGeometry>
        </mxCell>
        <mxCell id="cq9Dduk9PTRWg6nazAdE-24" style="edgeStyle=orthogonalEdgeStyle;rounded=0;orthogonalLoop=1;jettySize=auto;html=1;" edge="1" parent="1" source="W9lrs2fbmWmmJSOxmweB-1" target="cq9Dduk9PTRWg6nazAdE-5">
          <mxGeometry relative="1" as="geometry">
            <Array as="points">
              <mxPoint x="580" y="478" />
              <mxPoint x="580" y="597" />
            </Array>
          </mxGeometry>
        </mxCell>
        <mxCell id="W9lrs2fbmWmmJSOxmweB-1" value="Transferência" style="shape=image;html=1;verticalAlign=top;verticalLabelPosition=bottom;labelBackgroundColor=#ffffff;imageAspect=0;aspect=fixed;image=https://cdn1.iconfinder.com/data/icons/unicons-line-vol-3/24/docker-128.png" parent="1" vertex="1">
          <mxGeometry x="423" y="442.5" width="70" height="70" as="geometry" />
        </mxCell>
        <mxCell id="cq9Dduk9PTRWg6nazAdE-12" style="edgeStyle=orthogonalEdgeStyle;rounded=0;orthogonalLoop=1;jettySize=auto;html=1;" edge="1" parent="1" source="W9lrs2fbmWmmJSOxmweB-3" target="W9lrs2fbmWmmJSOxmweB-8">
          <mxGeometry relative="1" as="geometry" />
        </mxCell>
        <mxCell id="cq9Dduk9PTRWg6nazAdE-19" style="edgeStyle=orthogonalEdgeStyle;rounded=0;orthogonalLoop=1;jettySize=auto;html=1;" edge="1" parent="1" source="W9lrs2fbmWmmJSOxmweB-3" target="W9lrs2fbmWmmJSOxmweB-11">
          <mxGeometry relative="1" as="geometry">
            <Array as="points">
              <mxPoint x="750" y="680" />
            </Array>
          </mxGeometry>
        </mxCell>
        <mxCell id="W9lrs2fbmWmmJSOxmweB-3" value="Cadastro" style="shape=image;html=1;verticalAlign=top;verticalLabelPosition=bottom;labelBackgroundColor=#ffffff;imageAspect=0;aspect=fixed;image=https://cdn1.iconfinder.com/data/icons/unicons-line-vol-3/24/docker-128.png" parent="1" vertex="1">
          <mxGeometry x="718" y="338" width="70" height="70" as="geometry" />
        </mxCell>
        <mxCell id="cq9Dduk9PTRWg6nazAdE-17" style="edgeStyle=orthogonalEdgeStyle;rounded=0;orthogonalLoop=1;jettySize=auto;html=1;" edge="1" parent="1" source="W9lrs2fbmWmmJSOxmweB-4" target="W9lrs2fbmWmmJSOxmweB-11">
          <mxGeometry relative="1" as="geometry">
            <mxPoint x="726" y="513" as="sourcePoint" />
            <mxPoint x="636.5" y="716" as="targetPoint" />
            <Array as="points">
              <mxPoint x="665" y="680" />
            </Array>
          </mxGeometry>
        </mxCell>
        <mxCell id="W9lrs2fbmWmmJSOxmweB-4" value="Contas" style="shape=image;html=1;verticalAlign=top;verticalLabelPosition=bottom;labelBackgroundColor=#ffffff;imageAspect=0;aspect=fixed;image=https://cdn1.iconfinder.com/data/icons/unicons-line-vol-3/24/docker-128.png" parent="1" vertex="1">
          <mxGeometry x="630" y="443" width="70" height="70" as="geometry" />
        </mxCell>
        <mxCell id="W9lrs2fbmWmmJSOxmweB-6" value="" style="image;html=1;image=img/lib/clip_art/computers/Laptop_128x128.png" parent="1" vertex="1">
          <mxGeometry x="-11" y="505" width="50" height="55" as="geometry" />
        </mxCell>
        <mxCell id="W9lrs2fbmWmmJSOxmweB-7" value="" style="sketch=0;html=1;aspect=fixed;strokeColor=none;shadow=0;fillColor=#3B8DF1;verticalAlign=top;labelPosition=center;verticalLabelPosition=bottom;shape=mxgraph.gcp2.phone_android" parent="1" vertex="1">
          <mxGeometry x="11" y="382" width="28" height="50" as="geometry" />
        </mxCell>
        <mxCell id="W9lrs2fbmWmmJSOxmweB-8" value="" style="image;sketch=0;aspect=fixed;html=1;points=[];align=center;fontSize=12;image=img/lib/mscae/Cache_Redis_Product.svg;" parent="1" vertex="1">
          <mxGeometry x="609" y="352" width="50.01" height="42" as="geometry" />
        </mxCell>
        <mxCell id="W9lrs2fbmWmmJSOxmweB-10" value="Dados de cadastro mudam com&amp;nbsp;&lt;span style=&quot;background-color: initial;&quot;&gt;pouca frequência, então é possível manter em cache por alguns minutos&lt;/span&gt;" style="shape=note;whiteSpace=wrap;html=1;backgroundOutline=1;darkOpacity=0.05;" parent="1" vertex="1">
          <mxGeometry x="541" y="267" width="176" height="75" as="geometry" />
        </mxCell>
        <mxCell id="cq9Dduk9PTRWg6nazAdE-20" style="edgeStyle=orthogonalEdgeStyle;rounded=0;orthogonalLoop=1;jettySize=auto;html=1;" edge="1" parent="1" source="W9lrs2fbmWmmJSOxmweB-11" target="W9lrs2fbmWmmJSOxmweB-12">
          <mxGeometry relative="1" as="geometry" />
        </mxCell>
        <mxCell id="W9lrs2fbmWmmJSOxmweB-11" value="Observability" style="editableCssRules=.*;html=1;shape=image;verticalLabelPosition=bottom;labelBackgroundColor=#ffffff;verticalAlign=top;aspect=fixed;imageAspect=0;image=data:image/svg+xml,PHN2ZyB4bWxucz0iaHR0cDovL3d3dy53My5vcmcvMjAwMC9zdmciIHhtbG5zOnY9Imh0dHBzOi8vdmVjdGEuaW8vbmFubyIgd2lkdGg9IjE2MCIgaGVpZ2h0PSIyNDAiIHZpZXdCb3g9IjAgMCAxNjAgMjQwIj4mI3hhOwk8c3R5bGUgdHlwZT0idGV4dC9jc3MiPiYjeGE7CS5zdDB7ZmlsbDojNDY2YmIwO30mI3hhOwk8L3N0eWxlPiYjeGE7CTxwYXRoIGNsYXNzPSJzdDAiIGQ9Ik02MCAyNDBMMCAyMTBoMTYwem0wLTE2MEwwIDIwMGw2MC0xMHpNNzAgMHYxOTBsOTAgMTB6Ii8+JiN4YTs8L3N2Zz4=;fontColor=default;" parent="1" vertex="1">
          <mxGeometry x="591.5" y="644" width="39" height="60" as="geometry" />
        </mxCell>
        <mxCell id="W9lrs2fbmWmmJSOxmweB-12" value="Dashboards" style="image;aspect=fixed;html=1;points=[];align=center;fontSize=12;image=img/lib/azure2/other/Grafana.svg;" parent="1" vertex="1">
          <mxGeometry x="577" y="806" width="68" height="52.800000000000004" as="geometry" />
        </mxCell>
        <mxCell id="W9lrs2fbmWmmJSOxmweB-13" value="Audit" style="outlineConnect=0;dashed=0;verticalLabelPosition=bottom;verticalAlign=top;align=center;html=1;shape=mxgraph.aws3.dynamo_db;fillColor=#2E73B8;gradientColor=none;" parent="1" vertex="1">
          <mxGeometry x="426" y="800" width="51" height="60" as="geometry" />
        </mxCell>
        <mxCell id="W9lrs2fbmWmmJSOxmweB-18" value="Route 53" style="outlineConnect=0;dashed=0;verticalLabelPosition=bottom;verticalAlign=top;align=center;html=1;shape=mxgraph.aws3.route_53;fillColor=#F58536;gradientColor=none;" parent="1" vertex="1">
          <mxGeometry x="164" y="454" width="67" height="46" as="geometry" />
        </mxCell>
        <mxCell id="cq9Dduk9PTRWg6nazAdE-1" value="&lt;div&gt;&lt;br&gt;&lt;/div&gt;&lt;div&gt;&lt;br&gt;&lt;/div&gt;&lt;div&gt;&lt;br&gt;&lt;/div&gt;&lt;div&gt;&lt;br&gt;&lt;/div&gt;&lt;div&gt;&lt;br&gt;&lt;/div&gt;&lt;div&gt;&lt;br&gt;&lt;/div&gt;&lt;div&gt;&lt;br&gt;&lt;/div&gt;&lt;div&gt;&lt;span style=&quot;text-wrap: nowrap;&quot;&gt;O fluxo também poderia&amp;nbsp;&lt;/span&gt;&lt;span style=&quot;text-wrap: nowrap; background-color: initial;&quot;&gt;ser&lt;/span&gt;&lt;/div&gt;&lt;div&gt;&lt;span style=&quot;text-wrap: nowrap; background-color: initial;&quot;&gt;implementado&amp;nbsp;&lt;/span&gt;&lt;span style=&quot;background-color: initial; text-wrap: nowrap;&quot;&gt;com&amp;nbsp;&lt;/span&gt;&lt;span style=&quot;background-color: initial; text-wrap: nowrap;&quot;&gt;step functions&lt;/span&gt;&lt;/div&gt;" style="shape=note;whiteSpace=wrap;html=1;backgroundOutline=1;darkOpacity=0.05;" vertex="1" parent="1">
          <mxGeometry x="139" y="721" width="200" height="158" as="geometry" />
        </mxCell>
        <mxCell id="cq9Dduk9PTRWg6nazAdE-2" value="Step Functions" style="outlineConnect=0;dashed=0;verticalLabelPosition=bottom;verticalAlign=top;align=center;html=1;shape=mxgraph.aws3.step_functions;fillColor=#D9A741;gradientColor=none;" vertex="1" parent="1">
          <mxGeometry x="251" y="736" width="58" height="57" as="geometry" />
        </mxCell>
        <mxCell id="cq9Dduk9PTRWg6nazAdE-3" value="API Gateway" style="outlineConnect=0;dashed=0;verticalLabelPosition=bottom;verticalAlign=top;align=center;html=1;shape=mxgraph.aws3.api_gateway;fillColor=#D9A741;gradientColor=none;" vertex="1" parent="1">
          <mxGeometry x="158.01" y="736.5" width="56" height="55" as="geometry" />
        </mxCell>
        <mxCell id="cq9Dduk9PTRWg6nazAdE-5" value="Bacen" style="image;html=1;image=img/lib/clip_art/networking/Cloud_Rack_128x128.png" vertex="1" parent="1">
          <mxGeometry x="851" y="562" width="70" height="70" as="geometry" />
        </mxCell>
        <mxCell id="cq9Dduk9PTRWg6nazAdE-6" style="edgeStyle=orthogonalEdgeStyle;rounded=0;orthogonalLoop=1;jettySize=auto;html=1;entryX=0;entryY=0.27;entryDx=0;entryDy=0;entryPerimeter=0;" edge="1" parent="1" source="W9lrs2fbmWmmJSOxmweB-7" target="W9lrs2fbmWmmJSOxmweB-18">
          <mxGeometry relative="1" as="geometry" />
        </mxCell>
        <mxCell id="cq9Dduk9PTRWg6nazAdE-7" style="edgeStyle=orthogonalEdgeStyle;rounded=0;orthogonalLoop=1;jettySize=auto;html=1;entryX=0;entryY=0.27;entryDx=0;entryDy=0;entryPerimeter=0;" edge="1" parent="1" source="W9lrs2fbmWmmJSOxmweB-6" target="W9lrs2fbmWmmJSOxmweB-18">
          <mxGeometry relative="1" as="geometry" />
        </mxCell>
        <mxCell id="cq9Dduk9PTRWg6nazAdE-8" style="edgeStyle=orthogonalEdgeStyle;rounded=0;orthogonalLoop=1;jettySize=auto;html=1;" edge="1" parent="1" source="W9lrs2fbmWmmJSOxmweB-18" target="cq9Dduk9PTRWg6nazAdE-28">
          <mxGeometry relative="1" as="geometry">
            <mxPoint x="288" y="477" as="targetPoint" />
          </mxGeometry>
        </mxCell>
        <mxCell id="cq9Dduk9PTRWg6nazAdE-22" value="EKS" style="sketch=0;points=[[0,0,0],[0.25,0,0],[0.5,0,0],[0.75,0,0],[1,0,0],[0,1,0],[0.25,1,0],[0.5,1,0],[0.75,1,0],[1,1,0],[0,0.25,0],[0,0.5,0],[0,0.75,0],[1,0.25,0],[1,0.5,0],[1,0.75,0]];outlineConnect=0;fontColor=#232F3E;fillColor=#ED7100;strokeColor=#ffffff;dashed=0;verticalLabelPosition=bottom;verticalAlign=top;align=center;html=1;fontSize=12;fontStyle=0;aspect=fixed;shape=mxgraph.aws4.resourceIcon;resIcon=mxgraph.aws4.eks;" vertex="1" parent="1">
          <mxGeometry x="388" y="267" width="50" height="50" as="geometry" />
        </mxCell>
        <mxCell id="cq9Dduk9PTRWg6nazAdE-25" style="edgeStyle=orthogonalEdgeStyle;rounded=0;orthogonalLoop=1;jettySize=auto;html=1;entryX=0.02;entryY=0.524;entryDx=0;entryDy=0;entryPerimeter=0;" edge="1" parent="1" source="W9lrs2fbmWmmJSOxmweB-1" target="W9lrs2fbmWmmJSOxmweB-8">
          <mxGeometry relative="1" as="geometry">
            <Array as="points">
              <mxPoint x="540" y="478" />
              <mxPoint x="540" y="374" />
            </Array>
          </mxGeometry>
        </mxCell>
        <mxCell id="cq9Dduk9PTRWg6nazAdE-29" style="edgeStyle=orthogonalEdgeStyle;rounded=0;orthogonalLoop=1;jettySize=auto;html=1;" edge="1" parent="1" source="cq9Dduk9PTRWg6nazAdE-28" target="W9lrs2fbmWmmJSOxmweB-1">
          <mxGeometry relative="1" as="geometry" />
        </mxCell>
        <mxCell id="cq9Dduk9PTRWg6nazAdE-28" value="ALB" style="outlineConnect=0;dashed=0;verticalLabelPosition=bottom;verticalAlign=top;align=center;html=1;shape=mxgraph.aws3.application_load_balancer;fillColor=#F58534;gradientColor=none;" vertex="1" parent="1">
          <mxGeometry x="287" y="448" width="60" height="59" as="geometry" />
        </mxCell>
      </root>
    </mxGraphModel>
  </diagram>
</mxfile>
